<svg width="100%" height="100%" viewBox="0 0 91 83" fill="none" xmlns="http://www.w3.org/2000/svg">
<path d="M35.2719 59.378L31.6728 51.9436H16.4274L12.5853 59.378L12.3832 59.897C12.3559 59.9249 12.1539 60.3113 11.7766 61.057C11.211 62.1756 10.9275 63.3216 10.9275 64.4942C10.9275 66.5195 12.0597 67.9579 14.3245 68.8107V69.5303C13.8658 69.5303 13.0709 69.4623 11.9382 69.3302C10.3478 69.143 8.91886 69.0504 7.65198 69.0504C6.49296 69.0504 5.06357 69.143 3.3653 69.3302C2.20579 69.4623 1.43766 69.5303 1.06042 69.5303V68.8107C4.02558 67.3183 6.72184 64.2405 9.14822 59.5772L22.5739 33.7569C21.5491 31.7055 20.1407 30.1195 18.3482 29C16.5552 27.8815 14.4588 27.2684 12.0597 27.1618V26.4426H13.4754C14.7418 26.4426 16.4806 26.5227 18.6918 26.6819C21.0103 26.8425 22.5197 26.9221 23.221 26.9221L43.6428 69.0499C41.0275 69.1025 37.8867 69.2621 34.2202 69.5298V68.8102C36.2689 68.4644 37.2937 67.3714 37.2937 65.5327C37.2937 64.1744 36.6198 62.123 35.2719 59.378ZM18.0041 48.9459H30.2171L24.3532 36.7952L18.0041 48.9459ZM46.8778 69.0504L26.456 26.9226H30.4191C30.9584 28.3083 31.7133 30.0539 32.6835 32.1589C33.7615 34.4235 34.3681 35.7692 34.5038 36.1951C34.638 36.4353 34.759 36.7151 34.8674 37.0349L44.3704 56.4998C47.6864 63.2686 51.2181 67.3718 54.9661 68.8107V69.5303C51.2992 69.2105 48.6029 69.0504 46.8778 69.0504Z" fill="#EF4044"/>
<path d="M59.8994 55.1811H60.8296C61.0179 58.5917 62.4063 61.4028 64.9947 63.6148C67.528 65.7994 70.4399 66.8914 73.7291 66.8914C76.2629 66.8914 78.3252 66.1862 79.9166 64.7734C81.507 63.3611 82.303 61.6686 82.303 59.6968C82.303 57.6183 81.5344 56.0073 79.9971 54.8613C78.5146 53.7422 75.5899 52.4771 71.2227 51.0643C67.7173 49.9192 65.2236 48.9728 63.7415 48.2257C62.0154 47.3473 60.668 46.1617 59.6974 44.6684C58.6462 43.1505 58.1211 41.4449 58.1211 39.5527C58.1211 37.4482 58.8346 35.3833 60.264 33.3579C59.9404 34.3969 59.7789 35.3027 59.7789 36.0755C59.7789 38.1539 60.2776 39.9795 61.2751 41.551C62.2994 43.1765 63.5653 44.4026 65.0762 45.2279C66.5856 46.0822 69.1062 47.0541 72.6379 48.1461C77.2477 49.5324 80.5779 51.0648 82.6265 52.7428C84.5942 54.3683 85.579 56.5538 85.579 59.2979C85.579 61.9893 84.5537 64.4281 82.5055 66.6121C80.429 68.8241 77.3292 69.9297 73.204 69.9297C71.5316 69.9297 69.2136 69.6234 66.2484 69.0108C63.6605 68.4783 61.7202 68.1981 60.425 68.1715L60.1424 67.8522C60.1688 67.3988 60.1824 66.8123 60.1824 66.0931C60.1824 65.2408 60.1019 63.9216 59.9399 62.1369C59.8047 60.3518 59.7379 59.0186 59.7379 58.1398C59.7379 56.9932 59.7916 56.0073 59.8994 55.1811ZM88.4495 38.4737H87.6004C87.573 35.3833 86.333 33.0917 83.8798 31.5993C81.4802 30.134 78.5682 29.4008 75.1453 29.4008C72.4222 29.4008 70.1847 29.9738 68.4323 31.1194C66.653 32.2654 65.7633 33.6377 65.7633 35.2362C65.7633 36.9418 66.4646 38.2875 67.8662 39.2729C69.3219 40.3394 72.1934 41.605 76.4796 43.0704C80.4695 44.4292 83.26 45.5352 84.8504 46.388C86.5487 47.3208 87.9644 48.653 89.0966 50.3851C90.2288 52.1698 90.7944 54.1556 90.7944 56.3406C90.7944 59.6712 89.5538 62.2826 87.0743 64.1744C87.9903 62.9222 88.449 61.1636 88.449 58.898C88.449 56.767 87.9503 54.8748 86.9528 53.2232C85.9021 51.5442 84.6074 50.2115 83.0711 49.2261C81.507 48.2131 78.9591 47.1341 75.4279 45.9881C70.1164 44.256 66.653 42.7776 65.0352 41.551C63.418 40.2989 62.6083 38.3536 62.6083 35.7156C62.6083 32.6778 63.8479 30.2941 66.3289 28.5615C68.809 26.8825 72.3271 26.0432 76.8836 26.0432C79.984 26.0432 83.7714 26.5762 88.247 27.6417V27.9219L88.3275 29.4404C88.3275 30.2401 88.3543 31.199 88.4085 32.318C88.4895 33.6773 88.53 34.8764 88.53 35.9153C88.5305 36.6085 88.5032 37.4612 88.4495 38.4737Z" fill="#EF4044"/>
<path fill-rule="evenodd" clip-rule="evenodd" d="M34.6829 27.9524C34.2296 26.9978 34.2174 26.9501 34.6995 25.996L45.9594 1.51034C46.8427 -0.503446 46.9222 -0.503446 47.825 1.51034L59.0893 25.9753C59.5451 26.9925 59.5505 26.9925 59.0722 28.0276L47.825 52.5345C46.9442 54.4856 46.8588 54.4856 45.9594 52.5345L34.6829 27.9524Z" fill="#EF4044"/>
<path d="M0 81.4394H0.427985C0.849138 81.4394 1.10095 81.3386 1.18489 81.1369C1.26883 80.9358 1.31079 79.9716 1.31079 78.2439V75.9686C1.31079 74.1782 1.27419 73.1913 1.20197 73.008C1.12974 72.8247 0.912579 72.7331 0.549987 72.7331H0V72.3105C0.752512 72.3419 1.49673 72.3573 2.23118 72.3573C2.84364 72.3573 3.39899 72.3424 3.89774 72.3105V72.7331H3.37264C3.04958 72.7331 2.84657 72.7712 2.76507 72.8474C2.68308 72.9236 2.63526 73.1161 2.62159 73.4243C2.59866 73.9028 2.58743 74.7555 2.58743 75.9817V78.2974C2.58743 80.0382 2.62598 80.9971 2.70358 81.1741C2.78068 81.3501 3.02908 81.4394 3.4473 81.4394H3.89774V81.8619C3.33994 81.831 2.73237 81.8146 2.07502 81.8146C1.30836 81.8146 0.616845 81.8306 0 81.8619V81.4394Z" fill="#223468"/>
<path d="M6.51297 73.8252V78.4649C6.51297 79.5207 6.53346 80.2577 6.57397 80.674C6.60569 80.9909 6.65937 81.1858 6.73452 81.2543C6.80967 81.3242 7.02684 81.3739 7.38651 81.4052L7.82327 81.439V81.8615C7.32843 81.8307 6.8819 81.8143 6.48271 81.8143C6.20601 81.8143 5.57062 81.8302 4.57751 81.8615V81.439H5.06601C5.36028 81.439 5.55305 81.3985 5.64333 81.3179C5.7341 81.2374 5.79071 81.0787 5.81316 80.8414C5.86293 80.3489 5.88782 79.6804 5.88782 78.8344V75.4989C5.88782 74.8724 5.88148 74.2526 5.86733 73.6395C5.85854 73.38 5.82341 73.2025 5.76192 73.106C5.70092 73.0101 5.61161 72.9242 5.494 72.848C5.37639 72.7718 5.21095 72.7332 4.99818 72.7332H4.57751V72.3107C5.15239 72.3425 5.5916 72.3579 5.89466 72.3579C6.22065 72.3579 6.57836 72.343 6.96779 72.3107C7.41579 72.8518 7.83791 73.3795 8.23418 73.8913C8.62996 74.404 9.04135 74.9201 9.46689 75.4387L11.7893 78.2575C12.6268 79.2694 13.2314 79.9722 13.6023 80.3658V76.0561C13.6023 74.2531 13.5696 73.2671 13.5047 73.0993C13.4383 72.931 13.1772 72.8253 12.72 72.7805L12.2105 72.7327V72.3102C12.9391 72.342 13.5052 72.3574 13.9083 72.3574C14.3294 72.3574 14.8726 72.3425 15.5382 72.3102V72.7327H15.0151C14.5944 72.7327 14.3519 72.8716 14.2884 73.1495C14.2479 73.3327 14.2274 74.3129 14.2274 76.0893V79.1165C14.2274 79.9307 14.2635 80.9041 14.3363 82.0361C13.7204 81.9426 13.3627 81.8736 13.2631 81.8316C13.1636 81.7892 13.0684 81.7188 12.9781 81.6204C12.4755 81.0695 11.9479 80.4594 11.395 79.787L6.51297 73.8252Z" fill="#223468"/>
<path d="M18.7504 77.2975V79.6022C18.7504 80.5186 18.8006 81.0535 18.8997 81.2074C18.9992 81.3617 19.2525 81.4389 19.6605 81.4389H20.1426V81.8615C19.2823 81.8301 18.5966 81.8147 18.0847 81.8147C17.5684 81.8147 16.9008 81.8296 16.0814 81.8615V81.4389H16.6251C17.014 81.4389 17.2531 81.3651 17.3415 81.217C17.4293 81.0695 17.4737 80.5312 17.4737 79.6002V74.5371C17.4737 73.6293 17.4254 73.1021 17.3273 72.9545C17.2302 72.8064 16.9779 72.7331 16.5704 72.7331H16.0814V72.3106C16.833 72.3419 17.5098 72.3574 18.112 72.3574L22.0171 72.2836C22.4241 72.2836 22.8091 72.3033 23.1717 72.3439C23.0268 72.8228 22.9472 73.501 22.9336 74.3779H22.4992C22.4719 73.9124 22.4177 73.4967 22.3363 73.1291C21.716 72.968 21.0889 72.8875 20.455 72.8875C19.9025 72.8875 19.3613 72.9174 18.8318 72.9757C18.7777 73.5574 18.7504 74.0856 18.7504 74.5588V76.6941C19.0222 76.7067 19.2891 76.7144 19.5517 76.7144C20.231 76.7144 20.8259 76.6965 21.3378 76.6608C21.5096 76.6512 21.6262 76.6145 21.6877 76.5504C21.7487 76.4848 21.7999 76.3121 21.8404 76.0299L21.9083 75.5191H22.3363C22.2997 76.3386 22.2816 76.8644 22.2816 77.0969L22.2884 78.6809H21.8404V78.1638C21.8404 77.7519 21.7609 77.502 21.6028 77.4118C21.4442 77.3226 20.8376 77.2782 19.7825 77.2782C19.4926 77.2778 19.1486 77.2845 18.7504 77.2975Z" fill="#223468"/>
<path d="M23.8774 77.0829C23.8774 75.6108 24.3576 74.4252 25.318 73.5256C26.2784 72.6256 27.5584 72.1765 29.1572 72.1765C30.7251 72.1765 31.9539 72.5937 32.8441 73.4282C33.7342 74.2626 34.1793 75.3716 34.1793 76.7544C34.1793 78.2444 33.663 79.4913 32.6298 80.4936C31.5967 81.4954 30.2947 81.9965 28.7223 81.9965C27.739 81.9965 26.8923 81.7997 26.1808 81.4057C25.4693 81.0116 24.9081 80.4371 24.4957 79.6803C24.0838 78.9245 23.8774 78.0587 23.8774 77.0829ZM25.2565 76.5326C25.2565 77.544 25.4317 78.4243 25.7831 79.1739C26.1344 79.9229 26.6044 80.4849 27.1934 80.8587C27.7824 81.232 28.4554 81.4192 29.2123 81.4192C29.9146 81.4192 30.529 81.2605 31.0541 80.9426C31.5801 80.6243 31.994 80.1506 32.2946 79.5192C32.5962 78.8883 32.747 78.1219 32.747 77.2175C32.747 76.2687 32.5806 75.4579 32.2472 74.7845C31.9144 74.1112 31.4576 73.6043 30.8779 73.2642C30.2976 72.9246 29.611 72.7539 28.818 72.7539C28.0928 72.7539 27.4677 72.9044 26.9421 73.2039C26.4165 73.5039 26.0041 73.9433 25.705 74.5226C25.4058 75.101 25.2565 75.7719 25.2565 76.5326Z" fill="#223468"/>
<path d="M39.8573 77.0153C40.3009 77.6467 40.8509 78.3804 41.5073 79.2167L42.8112 80.8881C43.0425 81.175 43.1963 81.3386 43.2734 81.3786C43.35 81.4191 43.429 81.4394 43.511 81.4394H43.6872V81.8619C43.3119 81.8306 42.9835 81.8151 42.7024 81.8151C42.4447 81.8151 42.1734 81.8301 41.8879 81.8619L39.4835 78.6534C39.0355 78.063 38.5558 77.4861 38.0443 76.9218L38.1122 76.6936C38.3742 76.7158 38.5689 76.7264 38.6963 76.7264C39.4518 76.7264 40.0437 76.5349 40.4722 76.15C40.8997 75.7651 41.1134 75.2504 41.1134 74.606C41.1134 74.0287 40.9324 73.5781 40.5703 73.2531C40.2082 72.9284 39.685 72.7664 39.0018 72.7664C38.526 72.7664 38.0482 72.8542 37.569 73.0283C37.5144 73.7402 37.4875 74.5009 37.4875 75.3102V78.5526C37.4875 80.1317 37.5256 81.0077 37.6022 81.1804C37.6798 81.3526 37.9287 81.4389 38.3498 81.4389H38.8793V81.8614C38.1278 81.8301 37.5051 81.8146 37.0117 81.8146C36.6223 81.8146 35.9186 81.8296 34.8996 81.8614V81.4389H35.4091C35.7985 81.4389 36.0289 81.3545 36.1021 81.1866C36.1743 81.0193 36.2104 80.1366 36.2104 78.539V75.3107C36.2104 73.924 36.1684 73.1469 36.085 72.982C36.001 72.816 35.7282 72.7331 35.2666 72.7331H34.8996V72.3105C35.7419 72.3419 36.3846 72.3573 36.8287 72.3573C37.1269 72.3573 37.5573 72.3462 38.1185 72.3236C38.7705 72.3014 39.2395 72.2908 39.5245 72.2908C40.3077 72.2908 40.9016 72.3723 41.3072 72.5358C41.7122 72.6993 42.0202 72.9352 42.231 73.2444C42.4413 73.5526 42.5467 73.9221 42.5467 74.3518C42.5467 74.9827 42.3169 75.5394 41.8572 76.0227C41.3979 76.505 40.7308 76.8369 39.8573 77.0153Z" fill="#223468"/>
<path d="M54.0716 73.7599L52.0522 77.9109C51.2953 79.4698 50.675 80.832 50.1899 81.9959H49.9181C49.7502 81.5975 49.27 80.5739 48.477 78.9253L46.0443 73.9465V79.1361C46.0443 80.3443 46.0931 81.0312 46.1912 81.1947C46.2883 81.3577 46.5923 81.4397 47.1023 81.4397H47.3551V81.8623C46.7241 81.8309 46.2117 81.8155 45.8174 81.8155C45.5314 81.8155 44.9624 81.8304 44.1093 81.8623V81.4397H44.5505C44.8496 81.4397 45.0482 81.3973 45.1483 81.3114C45.2478 81.2261 45.3088 81.0727 45.3313 80.8479C45.3908 80.2218 45.4196 79.5465 45.4196 78.8216V75.0226C45.4196 74.1052 45.3996 73.4989 45.3591 73.2037C45.3406 73.0518 45.2737 72.9351 45.1585 72.8545C45.0429 72.774 44.8135 72.7334 44.469 72.7334H44.1093V72.3109C44.897 72.3423 45.3928 72.3577 45.5968 72.3577C45.8544 72.3577 46.2209 72.3427 46.6972 72.3109C47.2458 73.5153 47.8777 74.8427 48.5936 76.2936L50.3817 79.9266L52.0331 76.5618C52.6129 75.3844 53.2746 73.9673 54.0174 72.3109C54.5835 72.3423 54.9817 72.3577 55.213 72.3577C55.4795 72.3577 55.9616 72.3427 56.659 72.3109V72.7334H56.2154C55.8152 72.7334 55.5702 72.8019 55.4819 72.9384C55.3926 73.0749 55.3482 73.5665 55.3482 74.412V79.3179C55.3482 80.4104 55.3955 81.037 55.4883 81.1976C55.582 81.3592 55.8425 81.4397 56.2705 81.4397H56.6595V81.8623C56.0304 81.8309 55.4282 81.8155 54.8534 81.8155C54.2189 81.8155 53.5557 81.8304 52.8632 81.8623V81.4397H53.3117C53.6694 81.4397 53.8856 81.3621 53.9603 81.2077C54.035 81.0539 54.0725 80.3906 54.0725 79.2176V73.7599H54.0716Z" fill="#223468"/>
<path d="M64.0694 78.6399H60.1405L59.6803 79.7209C59.3772 80.4367 59.2254 80.8751 59.2254 81.0362C59.2254 81.1394 59.2537 81.2132 59.3099 81.2576C59.3665 81.3025 59.5104 81.3381 59.7418 81.3652L60.3933 81.439V81.8615C59.9589 81.8311 59.4699 81.8152 58.9268 81.8152C58.2748 81.8152 57.7019 81.8306 57.2085 81.8615V81.439L57.412 81.4322C57.7292 81.423 57.9342 81.3912 58.0269 81.3353C58.1196 81.2788 58.2182 81.1418 58.3221 80.9224C58.6437 80.2784 58.9717 79.5829 59.3074 78.8348L61.1746 74.6534C61.6728 73.5435 62.0125 72.7375 62.193 72.2368H62.6552L66.0913 80.1371C66.3226 80.6735 66.4758 80.9967 66.5534 81.1076C66.63 81.2166 66.7184 81.2952 66.8179 81.342C66.9175 81.3888 67.1415 81.4216 67.4904 81.439V81.8615C66.9018 81.8311 66.3401 81.8152 65.8063 81.8152C65.308 81.8152 64.6448 81.8306 63.8162 81.8615V81.439L64.4886 81.3984C64.7287 81.3816 64.8712 81.356 64.9166 81.3251C64.9845 81.2754 65.0181 81.2137 65.0181 81.1365C65.0181 81.056 64.9503 80.8462 64.8146 80.5061L64.0694 78.6399ZM60.3937 78.0901H63.8152L62.1057 74.0577L60.3937 78.0901Z" fill="#223468"/>
<path d="M72.7394 72.9217C72.6887 73.5931 72.6648 74.2993 72.6648 75.0421V78.869C72.6648 80.2914 72.7009 81.0757 72.7736 81.2214C72.8463 81.367 73.104 81.4399 73.5476 81.4399H74.0571V81.8624C73.2553 81.8315 72.5769 81.8151 72.0196 81.8151C71.4589 81.8151 70.784 81.831 69.9958 81.8624V81.4399H70.5663C70.8655 81.4399 71.0597 81.4008 71.1505 81.3226C71.2412 81.244 71.2978 81.0911 71.3203 80.8625C71.3657 80.3387 71.3881 79.6634 71.3881 78.8357V75.0025C71.3881 74.2467 71.373 73.5531 71.3408 72.9222H70.6498C69.5342 72.9222 68.9203 72.9477 68.807 72.9993C68.6943 73.05 68.6196 73.2506 68.584 73.5989L68.4889 74.4989H68.0609L68.0741 73.6997C68.0741 73.378 68.0472 72.9144 67.9926 72.3105C70.438 72.3424 71.8752 72.3578 72.3056 72.3578L76.0608 72.3105C75.9745 73.0669 75.9252 73.7962 75.9115 74.4989H75.4835L75.4152 73.6196C75.3879 73.3153 75.3493 73.1349 75.3 73.0794C75.2498 73.0239 75.1395 72.9887 74.9667 72.9752C74.4685 72.9395 73.9028 72.9222 73.2689 72.9222H72.7394V72.9217Z" fill="#223468"/>
<path d="M76.6986 81.4394H77.1261C77.5473 81.4394 77.8 81.3386 77.884 81.1369C77.9679 80.9358 78.0099 79.9716 78.0099 78.2439V75.9686C78.0099 74.1782 77.9733 73.1913 77.9011 73.008C77.8284 72.8247 77.6107 72.7331 77.2486 72.7331H76.6986V72.3105C77.4516 72.3419 78.1953 72.3573 78.9303 72.3573C79.5423 72.3573 80.0981 72.3424 80.5968 72.3105V72.7331H80.0713C79.7482 72.7331 79.5452 72.7712 79.4637 72.8474C79.3817 72.9236 79.3339 73.1161 79.3202 73.4243C79.2973 73.9028 79.2865 74.7555 79.2865 75.9817V78.2974C79.2865 80.0382 79.3251 80.9971 79.4022 81.1741C79.4793 81.3501 79.7277 81.4394 80.1459 81.4394H80.5968V81.8619C80.0386 81.831 79.431 81.8146 78.7731 81.8146C78.0075 81.8146 77.3159 81.8306 76.6986 81.8619V81.4394Z" fill="#223468"/>
<path d="M89.7037 74.734L89.649 73.5383C89.2469 73.2749 88.8248 73.0776 88.3826 72.9479C87.9415 72.8177 87.4803 72.7535 87.0006 72.7535C85.7786 72.7535 84.7991 73.1206 84.0632 73.8542C83.3273 74.5883 82.9594 75.5699 82.9594 76.8009C82.9594 77.6642 83.1467 78.4345 83.5196 79.1098C83.8934 79.7856 84.4239 80.3205 85.1125 80.7136C85.8005 81.1077 86.5272 81.305 87.2924 81.305C87.899 81.305 88.4992 81.235 89.0922 81.0961C89.5353 80.9934 89.9813 80.7787 90.4298 80.4517L90.5723 80.5863C90.4772 80.7922 90.3888 81.0001 90.3073 81.2104C89.7778 81.4699 89.2444 81.6658 88.7081 81.7974C88.1718 81.9296 87.6321 81.9957 87.0884 81.9957C85.9753 81.9957 84.9963 81.7835 84.1516 81.358C83.3073 80.9331 82.6582 80.3456 82.2059 79.5965C81.753 78.8465 81.5266 77.9995 81.5266 77.055C81.5266 76.1111 81.7554 75.2665 82.2127 74.5218C82.67 73.777 83.3161 73.1992 84.1516 72.7902C84.9865 72.3802 86.0128 72.1761 87.2314 72.1761C87.8702 72.1761 88.6168 72.2789 89.4728 72.4848C89.8979 72.5832 90.2444 72.6566 90.5118 72.7067C90.3078 73.1852 90.1902 73.8605 90.158 74.7335L89.7037 74.734Z" fill="#223468"/>
</svg>
