<svg width="125.17440000000005" height="118.45598111572268" viewBox="48.619994604492156 53.0400026977539 125.17440000000005 118.45598111572268" fill="none" xmlns="http://www.w3.org/2000/svg">
<mask id="mask0_205_1244" style="mask-type:luminance" maskUnits="userSpaceOnUse" x="0" y="0" width="221" height="221">
<path d="M221 0H0V221H221V0Z" fill="white"></path>
</mask>
<g mask="url(#mask0_205_1244)">
<path d="M97.0204 135.23L92.2288 125.217H71.9322L66.8165 135.23L66.5475 135.929C66.5118 135.967 66.2428 136.487 65.7406 137.491C64.9869 138.998 64.6101 140.542 64.6101 142.121C64.6101 144.849 66.1174 146.787 69.1326 147.935V148.905C68.5213 148.905 67.4629 148.813 65.955 148.636C63.8376 148.383 61.9353 148.258 60.2486 148.258C58.7056 148.258 56.8033 148.383 54.5423 148.636C52.998 148.813 51.9754 148.905 51.4731 148.905V147.935C55.4207 145.925 59.011 141.779 62.2406 135.498L80.1152 100.719C78.7508 97.9558 76.8758 95.8203 74.4888 94.3123C72.1018 92.805 69.3113 91.9799 66.1174 91.8356V90.8669H68.0022C69.6881 90.8669 72.003 90.9748 74.9468 91.1898C78.0329 91.4055 80.0431 91.5134 80.976 91.5134L108.164 148.258C104.682 148.328 100.501 148.543 95.6203 148.904V147.935C98.3477 147.469 99.7114 145.997 99.7114 143.52C99.7114 141.691 98.8142 138.927 97.0204 135.23ZM74.0314 121.178H90.2901L82.484 104.812L74.0314 121.178ZM112.47 148.258L85.2829 91.514H90.5584C91.2764 93.38 92.2814 95.7313 93.573 98.5672C95.0082 101.618 95.8165 103.43 95.9971 104.004C96.1757 104.327 96.3369 104.704 96.4805 105.134L109.133 131.354C113.547 140.47 118.249 145.998 123.238 147.935V148.905C118.358 148.474 114.767 148.258 112.47 148.258Z" fill="#EF4044"></path>
</g>
<mask id="mask1_205_1244" style="mask-type:luminance" maskUnits="userSpaceOnUse" x="0" y="0" width="221" height="221">
<path d="M221 0H0V221H221V0Z" fill="white"></path>
</mask>
<g mask="url(#mask1_205_1244)">
<path d="M129.807 129.577H131.045C131.295 134.171 133.144 137.957 136.59 140.937C139.964 143.879 143.84 145.351 148.219 145.351C151.591 145.351 154.338 144.401 156.456 142.497C158.574 140.595 159.633 138.316 159.633 135.661C159.633 132.859 158.609 130.69 156.564 129.146C154.59 127.638 150.695 125.934 144.881 124.032C140.215 122.489 136.895 121.214 134.921 120.209C132.624 119.024 130.829 117.428 129.538 115.417C128.139 113.371 127.439 111.075 127.439 108.526C127.439 105.691 128.389 102.91 130.292 100.182C129.861 101.581 129.646 102.801 129.646 103.842C129.646 106.642 130.31 109.101 131.638 111.218C133.001 113.407 134.688 115.059 136.699 116.171C138.708 117.32 142.064 118.63 146.767 120.101C152.904 121.968 157.336 124.032 160.064 126.293C162.684 128.482 163.994 131.425 163.994 135.122C163.994 138.748 162.63 142.032 159.903 144.975C157.138 147.954 153.012 149.443 147.52 149.443C145.293 149.443 142.207 149.03 138.26 148.204C134.813 147.487 132.23 147.11 130.506 147.073L130.13 146.643C130.165 146.034 130.184 145.244 130.184 144.274C130.184 143.126 130.076 141.349 129.86 138.945C129.681 136.54 129.591 134.745 129.591 133.561C129.591 132.018 129.663 130.69 129.807 129.577ZM167.816 107.072H166.686C166.649 102.91 164.998 99.8231 161.733 97.8129C158.538 95.8392 154.662 94.851 150.104 94.851C146.479 94.851 143.499 95.6241 141.167 97.1665C138.798 98.7102 137.614 100.559 137.614 102.712C137.614 105.009 138.547 106.821 140.413 108.149C142.352 109.585 146.173 111.29 151.881 113.263C157.192 115.094 160.907 116.585 163.024 117.732C165.285 118.99 167.17 120.784 168.677 123.116C170.184 125.521 170.939 128.196 170.939 131.139C170.939 135.625 169.287 139.142 165.986 141.691C167.205 140.004 167.815 137.636 167.815 134.584C167.815 131.714 167.152 129.166 165.824 126.94C164.424 124.679 162.702 122.884 160.656 121.556C158.574 120.191 155.182 118.738 150.48 117.194C143.409 114.861 138.797 112.87 136.644 111.219C134.491 109.532 133.414 106.912 133.414 103.358C133.414 99.2663 135.064 96.0549 138.367 93.7211C141.669 91.4602 146.353 90.3297 152.418 90.3297C156.545 90.3297 161.588 91.0476 167.546 92.4828V92.8596L167.654 94.9055C167.654 95.9828 167.69 97.2744 167.762 98.7817C167.869 100.613 167.923 102.228 167.923 103.627C167.923 104.561 167.887 105.709 167.816 107.072Z" fill="#EF4044"></path>
</g>
<mask id="mask2_205_1244" style="mask-type:luminance" maskUnits="userSpaceOnUse" x="0" y="0" width="221" height="221">
<path d="M221 0H0V221H221V0Z" fill="white"></path>
</mask>
<g mask="url(#mask2_205_1244)">
<path fill-rule="evenodd" clip-rule="evenodd" d="M96.2362 92.9012C95.632 91.6154 95.6157 91.5511 96.2576 90.2653L111.248 57.2846C112.424 54.5721 112.531 54.5721 113.733 57.2846L128.729 90.2374C129.335 91.6083 129.342 91.6083 128.706 93.0025L113.733 126.012C112.56 128.64 112.446 128.64 111.248 126.012L96.2362 92.9012Z" fill="#EF4044"></path>
</g>
<mask id="mask3_205_1244" style="mask-type:luminance" maskUnits="userSpaceOnUse" x="0" y="0" width="221" height="221">
<path d="M221 0H0V221H221V0Z" fill="white"></path>
</mask>
<g mask="url(#mask3_205_1244)">
<path d="M50.0613 164.946H50.6311C51.1918 164.946 51.5271 164.81 51.6388 164.539C51.7506 164.268 51.8064 162.969 51.8064 160.642V157.577C51.8064 155.165 51.7577 153.837 51.6615 153.589C51.5647 153.342 51.2756 153.219 50.7936 153.219H50.0613V152.65C51.0638 152.692 52.0533 152.713 53.0318 152.713C53.8471 152.713 54.5865 152.693 55.2505 152.65V153.219H54.5508C54.1207 153.219 53.8517 153.27 53.7425 153.373C53.6334 153.475 53.5697 153.735 53.5515 154.15C53.521 154.795 53.5061 155.944 53.5061 157.595V160.714C53.5061 163.059 53.5574 164.351 53.66 164.589C53.7633 164.826 54.094 164.946 54.6508 164.946H55.2505V165.516C54.5079 165.473 53.6997 165.451 52.8239 165.451C51.8032 165.451 50.8826 165.473 50.0613 165.516V164.946Z" fill="white"></path>
</g>
<mask id="mask4_205_1244" style="mask-type:luminance" maskUnits="userSpaceOnUse" x="0" y="0" width="221" height="221">
<path d="M221 0H0V221H221V0Z" fill="white"></path>
</mask>
<g mask="url(#mask4_205_1244)">
<path d="M58.7322 154.69V160.939C58.7322 162.362 58.7588 163.354 58.8134 163.915C58.8557 164.342 58.9278 164.604 59.0265 164.696C59.1266 164.791 59.4163 164.857 59.8952 164.9L60.4773 164.945V165.515C59.8185 165.473 59.2234 165.451 58.6919 165.451C58.3235 165.451 57.477 165.472 56.1548 165.515V164.945H56.8058C57.1983 164.945 57.4542 164.891 57.5751 164.783C57.6953 164.674 57.7706 164.46 57.8005 164.141C57.8668 163.477 57.8999 162.576 57.8999 161.437V156.944C57.8999 156.1 57.8908 155.266 57.8733 154.44C57.8603 154.09 57.8148 153.851 57.7323 153.721C57.6511 153.592 57.5322 153.476 57.3756 153.373C57.2191 153.271 56.9988 153.219 56.7155 153.219H56.1548V152.65C56.9208 152.692 57.5049 152.714 57.9084 152.714C58.343 152.714 58.8193 152.693 59.3377 152.65C59.9342 153.379 60.4961 154.089 61.0237 154.779C61.5506 155.47 62.0983 156.164 62.6648 156.863L65.7574 160.66C66.8716 162.023 67.6773 162.969 68.1704 163.5V157.695C68.1704 155.267 68.1275 153.938 68.0398 153.712C67.9521 153.485 67.6045 153.343 66.9957 153.283L66.3175 153.219V152.649C67.2875 152.692 68.0411 152.713 68.5778 152.713C69.1385 152.713 69.8616 152.692 70.7478 152.649V153.219H70.0513C69.4912 153.219 69.1677 153.405 69.0845 153.779C69.03 154.026 69.0033 155.347 69.0033 157.739V161.817C69.0033 162.914 69.0514 164.225 69.1475 165.749C68.3276 165.623 67.8514 165.531 67.7189 165.474C67.5863 165.417 67.4603 165.323 67.3394 165.189C66.6702 164.448 65.9679 163.626 65.2318 162.721L58.7322 154.69Z" fill="white"></path>
</g>
<mask id="mask5_205_1244" style="mask-type:luminance" maskUnits="userSpaceOnUse" x="0" y="0" width="221" height="221">
<path d="M221 0H0V221H221V0Z" fill="white"></path>
</mask>
<g mask="url(#mask5_205_1244)">
<path d="M75.0241 159.368V162.472C75.0241 163.706 75.0904 164.427 75.2229 164.633C75.3554 164.841 75.6926 164.945 76.2358 164.945H76.877V165.515C75.7323 165.472 74.8188 165.451 74.1379 165.451C73.4505 165.451 72.5617 165.471 71.4709 165.515V164.945H72.1947C72.7118 164.945 73.0308 164.846 73.1478 164.647C73.2654 164.448 73.3238 163.723 73.3238 162.469V155.649C73.3238 154.427 73.2595 153.716 73.1296 153.518C73.0003 153.318 72.6637 153.219 72.1219 153.219H71.4709V152.65C72.4708 152.692 73.3726 152.713 74.1736 152.713L79.3725 152.613C79.9144 152.613 80.427 152.641 80.9097 152.694C80.7168 153.34 80.6115 154.254 80.5933 155.434H80.0151C79.9781 154.807 79.9066 154.248 79.7981 153.752C78.9717 153.535 78.1368 153.427 77.2929 153.427C76.5574 153.427 75.8375 153.468 75.1326 153.546C75.0605 154.329 75.0241 155.041 75.0241 155.679V158.554C75.386 158.572 75.7414 158.581 76.0909 158.581C76.9946 158.581 77.7873 158.557 78.4688 158.509C78.6975 158.496 78.8528 158.447 78.9346 158.361C79.0159 158.272 79.0834 158.04 79.138 157.659L79.2283 156.972H79.7981C79.7494 158.075 79.7253 158.783 79.7253 159.097L79.7344 161.232H79.138V160.535C79.138 159.98 79.0321 159.643 78.8216 159.522C78.6104 159.401 77.8022 159.342 76.3982 159.342C76.0123 159.34 75.5543 159.349 75.0241 159.368Z" fill="white"></path>
</g>
<mask id="mask6_205_1244" style="mask-type:luminance" maskUnits="userSpaceOnUse" x="0" y="0" width="221" height="221">
<path d="M221 0H0V221H221V0Z" fill="white"></path>
</mask>
<g mask="url(#mask6_205_1244)">
<path d="M81.8499 159.078C81.8499 157.095 82.4892 155.498 83.7684 154.287C85.0464 153.075 86.7505 152.469 88.8796 152.469C90.9664 152.469 92.603 153.031 93.7881 154.155C94.9731 155.279 95.5657 156.773 95.5657 158.635C95.5657 160.642 94.8783 162.321 93.5022 163.671C92.1268 165.021 90.3934 165.696 88.3007 165.696C86.9916 165.696 85.8637 165.431 84.9171 164.9C83.9698 164.37 83.222 163.595 82.673 162.576C82.1247 161.558 81.8499 160.392 81.8499 159.078ZM83.6859 158.336C83.6859 159.699 83.9191 160.885 84.3863 161.894C84.8547 162.904 85.4804 163.66 86.2646 164.164C87.0488 164.666 87.9447 164.919 88.9517 164.919C89.8873 164.919 90.7046 164.705 91.4043 164.277C92.1041 163.848 92.655 163.21 93.0559 162.359C93.4567 161.51 93.6575 160.477 93.6575 159.259C93.6575 157.981 93.4366 156.889 92.9922 155.982C92.5498 155.075 91.9416 154.393 91.1691 153.935C90.3973 153.477 89.4832 153.247 88.4268 153.247C87.462 153.247 86.6297 153.449 85.9293 153.853C85.2302 154.257 84.6806 154.849 84.2823 155.63C83.8847 156.409 83.6859 157.312 83.6859 158.336Z" fill="white"></path>
</g>
<mask id="mask7_205_1244" style="mask-type:luminance" maskUnits="userSpaceOnUse" x="0" y="0" width="221" height="221">
<path d="M221 0H0V221H221V0Z" fill="white"></path>
</mask>
<g mask="url(#mask7_205_1244)">
<path d="M103.124 158.987C103.715 159.837 104.447 160.825 105.32 161.952L107.056 164.204C107.364 164.59 107.569 164.81 107.672 164.865C107.774 164.918 107.879 164.946 107.988 164.946H108.223V165.516C107.723 165.473 107.286 165.452 106.911 165.452C106.569 165.452 106.207 165.472 105.827 165.516L102.626 161.193C102.03 160.398 101.392 159.621 100.71 158.861L100.8 158.553C101.15 158.583 101.409 158.598 101.578 158.598C102.584 158.598 103.372 158.34 103.942 157.821C104.512 157.303 104.796 156.61 104.796 155.742C104.796 154.964 104.555 154.357 104.073 153.92C103.591 153.482 102.895 153.263 101.985 153.263C101.352 153.263 100.716 153.382 100.077 153.616C100.004 154.576 99.9693 155.6 99.9693 156.691V161.057C99.9693 163.185 100.02 164.365 100.122 164.597C100.225 164.829 100.557 164.945 101.117 164.945H101.822V165.515C100.822 165.472 99.9927 165.451 99.3359 165.451C98.8168 165.451 97.8806 165.471 96.524 165.515V164.945H97.2016C97.7207 164.945 98.0274 164.832 98.1242 164.606C98.2204 164.38 98.2684 163.192 98.2684 161.04V156.691C98.2684 154.823 98.2126 153.776 98.1015 153.554C97.9897 153.331 97.6265 153.219 97.0126 153.219H96.524V152.65C97.6447 152.692 98.501 152.713 99.0923 152.713C99.4892 152.713 100.062 152.698 100.809 152.667C101.677 152.637 102.301 152.624 102.681 152.624C103.724 152.624 104.515 152.733 105.054 152.954C105.594 153.173 106.004 153.491 106.284 153.907C106.564 154.322 106.705 154.82 106.705 155.399C106.705 156.25 106.398 156.999 105.787 157.65C105.175 158.299 104.287 158.747 103.124 158.987Z" fill="white"></path>
</g>
<mask id="mask8_205_1244" style="mask-type:luminance" maskUnits="userSpaceOnUse" x="0" y="0" width="221" height="221">
<path d="M221 0H0V221H221V0Z" fill="white"></path>
</mask>
<g mask="url(#mask8_205_1244)">
<path d="M122.047 154.602L119.36 160.193C118.352 162.293 117.525 164.128 116.881 165.695H116.518C116.295 165.159 115.656 163.781 114.6 161.56L111.361 154.854V161.844C111.361 163.471 111.425 164.396 111.557 164.616C111.686 164.836 112.091 164.946 112.77 164.946H113.106V165.516C112.266 165.473 111.584 165.452 111.058 165.452C110.678 165.452 109.92 165.473 108.784 165.516V164.946H109.371C109.77 164.946 110.035 164.889 110.168 164.774C110.3 164.659 110.381 164.452 110.412 164.15C110.491 163.306 110.529 162.397 110.529 161.42V156.303C110.529 155.068 110.502 154.25 110.448 153.853C110.423 153.648 110.335 153.491 110.181 153.382C110.027 153.274 109.721 153.22 109.263 153.22H108.784V152.65C109.833 152.692 110.493 152.714 110.765 152.714C111.108 152.714 111.596 152.693 112.23 152.65C112.96 154.272 113.801 156.06 114.754 158.015L117.135 162.908L119.334 158.377C120.105 156.791 120.986 154.882 121.976 152.65C122.729 152.692 123.258 152.714 123.567 152.714C123.922 152.714 124.564 152.693 125.492 152.65V153.22H124.902C124.369 153.22 124.043 153.312 123.925 153.495C123.806 153.679 123.747 154.341 123.747 155.48V162.088C123.747 163.56 123.81 164.404 123.933 164.62C124.058 164.838 124.405 164.946 124.975 164.946H125.493V165.516C124.655 165.473 123.853 165.452 123.088 165.452C122.244 165.452 121.361 165.473 120.439 165.516V164.946H121.036C121.512 164.946 121.8 164.842 121.899 164.634C121.999 164.427 122.048 163.533 122.048 161.953L122.047 154.602Z" fill="white"></path>
</g>
<mask id="mask9_205_1244" style="mask-type:luminance" maskUnits="userSpaceOnUse" x="0" y="0" width="221" height="221">
<path d="M221 0H0V221H221V0Z" fill="white"></path>
</mask>
<g mask="url(#mask9_205_1244)">
<path d="M135.358 161.176H130.128L129.515 162.631C129.111 163.595 128.909 164.186 128.909 164.403C128.909 164.542 128.947 164.641 129.021 164.701C129.097 164.762 129.289 164.809 129.596 164.846L130.464 164.945V165.515C129.885 165.473 129.234 165.452 128.511 165.452C127.643 165.452 126.881 165.473 126.224 165.515V164.945L126.495 164.937C126.916 164.924 127.191 164.881 127.313 164.806C127.437 164.73 127.567 164.545 127.707 164.249C128.134 163.382 128.572 162.445 129.017 161.438L131.504 155.805C132.167 154.31 132.619 153.225 132.86 152.55H133.476L138.05 163.192C138.357 163.915 138.562 164.35 138.664 164.499C138.766 164.646 138.885 164.752 139.016 164.815C139.149 164.878 139.448 164.921 139.912 164.945V165.515C139.129 165.473 138.382 165.452 137.671 165.452C137.007 165.452 136.124 165.473 135.021 165.515V164.945L135.916 164.891C136.236 164.867 136.426 164.834 136.486 164.793C136.575 164.726 136.622 164.642 136.622 164.538C136.622 164.43 136.531 164.147 136.35 163.689L135.358 161.176ZM130.464 160.435H135.021L132.744 155.003L130.464 160.435Z" fill="white"></path>
</g>
<mask id="mask10_205_1244" style="mask-type:luminance" maskUnits="userSpaceOnUse" x="0" y="0" width="221" height="221">
<path d="M221 0H0V221H221V0Z" fill="white"></path>
</mask>
<g mask="url(#mask10_205_1244)">
<path d="M146.9 153.473C146.833 154.377 146.802 155.328 146.802 156.329V161.483C146.802 163.399 146.85 164.455 146.946 164.651C147.043 164.848 147.386 164.946 147.977 164.946H148.655V165.516C147.588 165.473 146.684 165.451 145.943 165.451C145.196 165.451 144.297 165.473 143.249 165.516V164.946H144.009C144.406 164.946 144.665 164.893 144.786 164.788C144.907 164.682 144.982 164.476 145.012 164.168C145.073 163.463 145.102 162.553 145.102 161.438V156.275C145.102 155.257 145.082 154.323 145.039 153.473H144.12C142.634 153.473 141.817 153.508 141.666 153.577C141.516 153.646 141.417 153.915 141.368 154.385L141.242 155.597H140.672L140.69 154.521C140.69 154.087 140.655 153.462 140.582 152.649C143.837 152.692 145.751 152.713 146.323 152.713L151.323 152.649C151.209 153.668 151.142 154.65 151.123 155.597H150.554L150.463 154.412C150.428 154.002 150.376 153.759 150.309 153.685C150.244 153.61 150.096 153.563 149.866 153.544C149.203 153.496 148.451 153.473 147.606 153.473H146.9Z" fill="white"></path>
</g>
<mask id="mask11_205_1244" style="mask-type:luminance" maskUnits="userSpaceOnUse" x="0" y="0" width="221" height="221">
<path d="M221 0H0V221H221V0Z" fill="white"></path>
</mask>
<g mask="url(#mask11_205_1244)">
<path d="M152.172 164.946H152.742C153.302 164.946 153.638 164.81 153.75 164.539C153.862 164.268 153.918 162.969 153.918 160.642V157.577C153.918 155.165 153.869 153.837 153.773 153.589C153.676 153.342 153.386 153.219 152.904 153.219H152.172V152.65C153.175 152.692 154.164 152.713 155.143 152.713C155.958 152.713 156.698 152.693 157.362 152.65V153.219H156.662C156.231 153.219 155.962 153.27 155.853 153.373C155.744 153.475 155.681 153.735 155.662 154.15C155.632 154.795 155.617 155.944 155.617 157.595V160.714C155.617 163.059 155.669 164.351 155.771 164.589C155.874 164.826 156.205 164.946 156.762 164.946H157.362V165.516C156.619 165.473 155.81 165.451 154.935 165.451C153.915 165.451 152.994 165.473 152.172 165.516V164.946Z" fill="white"></path>
</g>
<mask id="mask12_205_1244" style="mask-type:luminance" maskUnits="userSpaceOnUse" x="0" y="0" width="221" height="221">
<path d="M221 0H0V221H221V0Z" fill="white"></path>
</mask>
<g mask="url(#mask12_205_1244)">
<path d="M169.485 155.914L169.414 154.304C168.877 153.949 168.316 153.683 167.726 153.508C167.14 153.332 166.526 153.246 165.888 153.246C164.26 153.246 162.956 153.741 161.977 154.729C160.998 155.717 160.508 157.04 160.508 158.698C160.508 159.861 160.756 160.898 161.253 161.808C161.751 162.718 162.457 163.439 163.374 163.968C164.29 164.499 165.256 164.764 166.276 164.764C167.083 164.764 167.882 164.67 168.672 164.483C169.262 164.345 169.856 164.056 170.453 163.615L170.642 163.796C170.517 164.074 170.398 164.355 170.29 164.638C169.585 164.987 168.876 165.25 168.16 165.428C167.447 165.606 166.729 165.695 166.005 165.695C164.522 165.695 163.22 165.41 162.095 164.836C160.972 164.264 160.106 163.473 159.505 162.463C158.901 161.453 158.6 160.313 158.6 159.04C158.6 157.769 158.906 156.632 159.513 155.628C160.122 154.625 160.982 153.846 162.095 153.295C163.207 152.744 164.573 152.468 166.196 152.468C167.045 152.468 168.039 152.607 169.179 152.884C169.744 153.017 170.206 153.115 170.562 153.183C170.29 153.828 170.134 154.738 170.092 155.913L169.485 155.914Z" fill="white"></path>
</g>
</svg>