<svg width="20" height="20" viewBox="0 0 20 20" fill="none" xmlns="http://www.w3.org/2000/svg">
<path d="M9.95916 16.0722C9.86055 16.0719 9.7631 16.0509 9.67313 16.0105C9.58317 15.9702 9.50271 15.9113 9.43697 15.8378L2.85947 8.54359C2.76909 8.44254 2.70985 8.31752 2.68888 8.18358C2.66791 8.04964 2.68612 7.91249 2.7413 7.78866C2.79648 7.66482 2.88628 7.55958 2.9999 7.48561C3.11351 7.41163 3.24608 7.37208 3.38166 7.37172H6.01556V0.953125C6.01556 0.766645 6.08964 0.587802 6.2215 0.455941C6.35337 0.324079 6.53221 0.25 6.71869 0.25H13.2015C13.388 0.25 13.5668 0.324079 13.6987 0.455941C13.8305 0.587802 13.9046 0.766645 13.9046 0.953125V7.36984H16.5371C16.6727 7.37021 16.8053 7.40976 16.9189 7.48373C17.0325 7.5577 17.1223 7.66295 17.1775 7.78678C17.2327 7.91062 17.2509 8.04776 17.2299 8.1817C17.2089 8.31565 17.1497 8.44067 17.0593 8.54172L10.4813 15.8397C10.4154 15.9128 10.3349 15.9713 10.2449 16.0114C10.155 16.0514 10.0576 16.0722 9.95916 16.0722ZM4.96228 8.77609L9.95916 14.3191L14.9565 8.77609H13.2015C13.015 8.77609 12.8362 8.70201 12.7043 8.57015C12.5725 8.43829 12.4984 8.25945 12.4984 8.07297V1.65625H7.42181V8.07297C7.42181 8.25945 7.34773 8.43829 7.21587 8.57015C7.08401 8.70201 6.90517 8.77609 6.71869 8.77609H4.96228Z" fill="white"/>
<path d="M16.3206 19.0938H3.59829C2.78683 19.0929 2.00884 18.7702 1.43501 18.1964C0.861171 17.6227 0.538346 16.8447 0.537354 16.0333V14.2441C0.537354 14.0576 0.611433 13.8787 0.743294 13.7469C0.875156 13.615 1.054 13.5409 1.24048 13.5409C1.42696 13.5409 1.6058 13.615 1.73766 13.7469C1.86952 13.8787 1.9436 14.0576 1.9436 14.2441V16.0333C1.94422 16.4719 2.11877 16.8924 2.42896 17.2025C2.73916 17.5126 3.15967 17.687 3.59829 17.6875H16.3206C16.7592 17.687 17.1797 17.5126 17.4898 17.2024C17.7999 16.8923 17.9744 16.4719 17.9749 16.0333V14.2441C17.9749 14.0576 18.0489 13.8787 18.1808 13.7469C18.3127 13.615 18.4915 13.5409 18.678 13.5409C18.8645 13.5409 19.0433 13.615 19.1752 13.7469C19.307 13.8787 19.3811 14.0576 19.3811 14.2441V16.0333C19.3801 16.8447 19.0574 17.6225 18.4836 18.1963C17.9099 18.77 17.132 19.0928 16.3206 19.0938Z" fill="white"/>
</svg>
