<svg width="21" height="21" viewBox="0 0 21 21" fill="none" xmlns="http://www.w3.org/2000/svg">
<path d="M10.5 1.75C8.84318 1.75343 7.24131 2.34442 5.97927 3.41783C4.71723 4.49125 3.87683 5.97752 3.60755 7.61228C3.33828 9.24705 3.65757 10.9243 4.50866 12.3458C5.35974 13.7673 6.68744 14.8409 8.2556 15.3755L10.5 19.243L12.7443 15.3755C14.3125 14.8409 15.6402 13.7673 16.4913 12.3458C17.3424 10.9243 17.6617 9.24705 17.3924 7.61228C17.1231 5.97752 16.2827 4.49125 15.0207 3.41783C13.7586 2.34442 12.1568 1.75343 10.5 1.75ZM11.9227 13.7987L11.5806 13.895H10.5H9.41935L9.07722 13.7987C7.85669 13.4551 6.80175 12.6814 6.10732 11.6205C5.41289 10.5595 5.12588 9.28315 5.29932 8.02708C5.47276 6.77102 6.09493 5.62016 7.05089 4.78714C8.00685 3.95411 9.23199 3.49521 10.5 3.49521C11.768 3.49521 12.9931 3.95411 13.9491 4.78714C14.905 5.62016 15.5272 6.77102 15.7006 8.02708C15.8741 9.28315 15.5871 10.5595 14.8926 11.6205C14.1982 12.6814 13.1433 13.4551 11.9227 13.7987Z" fill="white"/>
<path d="M10.5 2.625C9.28859 2.625 8.10439 2.98423 7.09713 3.65725C6.08988 4.33027 5.30483 5.28687 4.84124 6.40606C4.37765 7.52526 4.25636 8.75679 4.49269 9.94493C4.72903 11.1331 5.31238 12.2244 6.16897 13.081C7.02557 13.9376 8.11694 14.521 9.30507 14.7573C10.4932 14.9936 11.7247 14.8723 12.8439 14.4088C13.9631 13.9452 14.9197 13.1601 15.5928 12.1529C16.2658 11.1456 16.625 9.96141 16.625 8.75C16.625 7.12555 15.9797 5.56763 14.831 4.41897C13.6824 3.27031 12.1245 2.625 10.5 2.625ZM10.5 10.7917C10.0962 10.7917 9.70146 10.6719 9.36571 10.4476C9.02996 10.2232 8.76828 9.90438 8.61375 9.53131C8.45922 9.15825 8.41879 8.74773 8.49757 8.35169C8.57634 7.95565 8.77079 7.59186 9.05633 7.30632C9.34186 7.02079 9.70565 6.82634 10.1017 6.74756C10.4977 6.66878 10.9082 6.70922 11.2813 6.86374C11.6544 7.01827 11.9732 7.27996 12.1976 7.61571C12.4219 7.95146 12.5417 8.3462 12.5417 8.75C12.5417 9.29148 12.3266 9.81079 11.9437 10.1937C11.5608 10.5766 11.0415 10.7917 10.5 10.7917Z" fill="white"/>
</svg>
