<svg width="15" height="13" viewBox="0 0 15 13" fill="none" xmlns="http://www.w3.org/2000/svg">
<path d="M5.14098 3.16982C5.29297 3.49032 5.20604 3.8433 4.85412 4.14827C4.50219 4.45323 4.16983 4.7542 4.03658 4.85692C3.90334 4.95952 3.68561 5.15647 3.87101 5.47639C5.03137 7.46068 6.5609 8.60785 8.68127 9.64535C9.05017 9.80607 9.27754 9.61735 9.39598 9.50181C9.51442 9.38639 9.86173 9.09813 10.2136 8.79316C10.5656 8.48819 10.9728 8.41289 11.3426 8.54455L15 10.7471C15 10.7471 14.9413 11.276 14.5932 11.6547C14.5227 11.7314 14.4249 11.8337 14.2962 11.9476C14.2775 11.9637 14.2593 11.9799 14.2396 11.9965C13.7668 12.3975 12.9174 12.9132 11.5191 12.9927C9.65419 13.0987 7.76567 12.0149 7.50054 11.8637C4.6531 10.3127 2.93721 8.87646 1.31111 6.49965C1.13658 6.26987 -0.113966 4.63313 0.00841224 3.01687C0.100094 1.80499 0.695281 1.06881 1.1579 0.658889C1.17719 0.641828 1.1958 0.626062 1.21441 0.609943C1.34575 0.498286 1.46392 0.413572 1.55234 0.352508C1.98943 0.0508335 2.41483 0.0047118 2.59955 5.49207e-06C2.78441 -0.00481848 5.14098 3.16982 5.14098 3.16982Z" fill="white"/>
</svg>
