<svg width="39" height="41" viewBox="0 0 39 41" fill="none" xmlns="http://www.w3.org/2000/svg">
<path d="M38.1425 9.44002C38.0127 9.30007 37.8552 9.18868 37.68 9.11293C37.5048 9.03718 37.3158 8.99872 37.125 9.00002H15.125C14.7603 9.00002 14.4105 9.14488 14.1527 9.40275C13.8948 9.66061 13.75 10.0103 13.75 10.375C13.75 10.7397 13.8948 11.0894 14.1527 11.3473C14.4105 11.6052 14.7603 11.75 15.125 11.75H35.6262L34.5125 24.785C34.3954 25.4126 34.049 25.9742 33.5406 26.3605C33.0323 26.7468 32.3985 26.9302 31.7625 26.875H14.96C14.3239 26.9302 13.6901 26.7468 13.1818 26.3605C12.6735 25.9742 12.3271 25.4126 12.21 24.785L11 10.265V10.155C11 10.155 11 10.0725 11 10.045L10.0787 6.52502C9.87552 5.70059 9.47898 4.93638 8.92188 4.29559C8.36477 3.65481 7.66312 3.15586 6.87496 2.84002L1.88371 0.846266C1.71578 0.779456 1.53633 0.746376 1.35562 0.748915C1.17491 0.751454 0.996468 0.789562 0.830483 0.861063C0.664498 0.932564 0.514222 1.03606 0.388234 1.16564C0.262247 1.29521 0.163015 1.44834 0.0962052 1.61627C-0.0387237 1.95541 -0.0334011 2.33427 0.111002 2.66949C0.255405 3.00471 0.52706 3.26884 0.866205 3.40377L5.84371 5.39752C6.22835 5.54927 6.57122 5.79062 6.84385 6.10151C7.11647 6.4124 7.31098 6.78385 7.41121 7.18502L8.24996 10.595L9.48746 25.0188C9.6646 26.3342 10.3269 27.5359 11.3445 28.3881C12.3621 29.2403 13.6614 29.6815 14.9875 29.625H15.125V32.6225C14.2075 32.9469 13.4343 33.5851 12.942 34.4244C12.4496 35.2637 12.2698 36.2501 12.4344 37.2092C12.5989 38.1682 13.0972 39.0382 13.8412 39.6654C14.5851 40.2926 15.5269 40.6366 16.5 40.6366C17.473 40.6366 18.4148 40.2926 19.1587 39.6654C19.9027 39.0382 20.401 38.1682 20.5655 37.2092C20.7301 36.2501 20.5503 35.2637 20.0579 34.4244C19.5656 33.5851 18.7924 32.9469 17.875 32.6225V29.625H28.875V32.6225C27.9575 32.9469 27.1843 33.5851 26.692 34.4244C26.1996 35.2637 26.0198 36.2501 26.1844 37.2092C26.3489 38.1682 26.8472 39.0382 27.5912 39.6654C28.3351 40.2926 29.2769 40.6366 30.25 40.6366C31.223 40.6366 32.1648 40.2926 32.9087 39.6654C33.6527 39.0382 34.151 38.1682 34.3155 37.2092C34.4801 36.2501 34.3003 35.2637 33.8079 34.4244C33.3156 33.5851 32.5424 32.9469 31.625 32.6225V29.625H31.79C33.116 29.6815 34.4154 29.2403 35.4329 28.3881C36.4505 27.5359 37.1128 26.3342 37.29 25.0188L38.5 10.485C38.5158 10.2956 38.4923 10.1049 38.4307 9.92504C38.3692 9.74518 38.271 9.58003 38.1425 9.44002ZM16.5 37.875C16.228 37.875 15.9622 37.7944 15.736 37.6433C15.5099 37.4922 15.3337 37.2775 15.2296 37.0262C15.1256 36.775 15.0983 36.4985 15.1514 36.2318C15.2044 35.965 15.3354 35.72 15.5277 35.5277C15.72 35.3354 15.965 35.2045 16.2317 35.1514C16.4984 35.0984 16.7749 35.1256 17.0261 35.2297C17.2774 35.3338 17.4921 35.51 17.6432 35.7361C17.7943 35.9622 17.875 36.2281 17.875 36.5C17.875 36.8647 17.7301 37.2144 17.4722 37.4723C17.2144 37.7302 16.8646 37.875 16.5 37.875ZM30.25 37.875C29.978 37.875 29.7122 37.7944 29.486 37.6433C29.2599 37.4922 29.0837 37.2775 28.9796 37.0262C28.8756 36.775 28.8483 36.4985 28.9014 36.2318C28.9544 35.965 29.0854 35.72 29.2777 35.5277C29.47 35.3354 29.715 35.2045 29.9817 35.1514C30.2484 35.0984 30.5249 35.1256 30.7761 35.2297C31.0274 35.3338 31.2421 35.51 31.3932 35.7361C31.5443 35.9622 31.625 36.2281 31.625 36.5C31.625 36.8647 31.4801 37.2144 31.2222 37.4723C30.9644 37.7302 30.6146 37.875 30.25 37.875Z" fill="#213368"/>
<path d="M17.8749 22.75V15.875C17.8749 15.5103 17.7301 15.1606 17.4722 14.9027C17.2143 14.6449 16.8646 14.5 16.4999 14.5C16.1353 14.5 15.7855 14.6449 15.5277 14.9027C15.2698 15.1606 15.1249 15.5103 15.1249 15.875V22.75C15.1249 23.1147 15.2698 23.4644 15.5277 23.7223C15.7855 23.9801 16.1353 24.125 16.4999 24.125C16.8646 24.125 17.2143 23.9801 17.4722 23.7223C17.7301 23.4644 17.8749 23.1147 17.8749 22.75Z" fill="#213368"/>
<path d="M24.7499 22.75V15.875C24.7499 15.5103 24.6051 15.1606 24.3472 14.9027C24.0893 14.6449 23.7396 14.5 23.3749 14.5C23.0103 14.5 22.6605 14.6449 22.4027 14.9027C22.1448 15.1606 21.9999 15.5103 21.9999 15.875V22.75C21.9999 23.1147 22.1448 23.4644 22.4027 23.7223C22.6605 23.9801 23.0103 24.125 23.3749 24.125C23.7396 24.125 24.0893 23.9801 24.3472 23.7223C24.6051 23.4644 24.7499 23.1147 24.7499 22.75Z" fill="#213368"/>
<path d="M31.6249 22.75V15.875C31.6249 15.5103 31.4801 15.1606 31.2222 14.9027C30.9643 14.6449 30.6146 14.5 30.2499 14.5C29.8853 14.5 29.5355 14.6449 29.2777 14.9027C29.0198 15.1606 28.8749 15.5103 28.8749 15.875V22.75C28.8749 23.1147 29.0198 23.4644 29.2777 23.7223C29.5355 23.9801 29.8853 24.125 30.2499 24.125C30.6146 24.125 30.9643 23.9801 31.2222 23.7223C31.4801 23.4644 31.6249 23.1147 31.6249 22.75Z" fill="#213368"/>
</svg>
