<svg width="36" height="36" viewBox="0 0 36 36" fill="none" xmlns="http://www.w3.org/2000/svg">
<path d="M35.8768 15.432L33.8538 6.84356V1.03671C33.8538 0.90299 33.8275 0.77058 33.7764 0.647037C33.7252 0.523495 33.6502 0.411242 33.5557 0.316691C33.4611 0.222141 33.3489 0.147145 33.2253 0.0959901C33.1018 0.0448348 32.9694 0.0185222 32.8356 0.0185547H3.78916C3.51915 0.0186033 3.2602 0.125888 3.06927 0.316818C2.87834 0.507748 2.77106 0.76669 2.77101 1.03671V6.77364L0.747563 15.4336C0.729626 15.5096 0.720612 15.5874 0.720704 15.6655V19.0593C0.721732 19.9151 0.975833 20.7515 1.45104 21.4633C1.92625 22.175 2.60133 22.7303 3.39136 23.0593V34.9818C3.39141 35.2519 3.49869 35.5108 3.68962 35.7017C3.88055 35.8927 4.1395 36 4.40951 36H32.2155C32.3493 36 32.4817 35.9737 32.6052 35.9226C32.7288 35.8714 32.841 35.7964 32.9356 35.7019C33.0301 35.6073 33.1051 35.4951 33.1563 35.3715C33.2074 35.248 33.2337 35.1156 33.2337 34.9818V23.0593C34.0238 22.7303 34.6989 22.1751 35.1741 21.4633C35.6493 20.7516 35.9034 19.9151 35.9044 19.0593V15.6655C35.9044 15.5869 35.8951 15.5085 35.8768 15.432ZM27.2677 18.8245C27.2486 18.9012 27.2386 18.98 27.2379 19.059C27.2365 19.6673 26.994 20.2502 26.5634 20.6798C26.1329 21.1094 25.5495 21.3507 24.9412 21.3507C24.333 21.3507 23.7496 21.1094 23.319 20.6798C22.8885 20.2502 22.646 19.6673 22.6446 19.059H22.6646V16.6834H27.2677V18.8245ZM9.38696 16.6837H13.99V18.9606C13.987 18.9939 13.9802 19.0254 13.9802 19.0593C13.9808 19.3614 13.9219 19.6605 13.8068 19.9397C13.6917 20.219 13.5226 20.4727 13.3093 20.6865C13.096 20.9003 12.8426 21.0699 12.5636 21.1856C12.2846 21.3014 11.9856 21.3609 11.6836 21.3609C11.3816 21.3609 11.0825 21.3014 10.8036 21.1856C10.5246 21.0699 10.2712 20.9003 10.0579 20.6865C9.84455 20.4727 9.67549 20.219 9.56036 19.9397C9.44524 19.6605 9.38632 19.3614 9.38698 19.0593L9.38696 16.6837ZM20.6287 7.90926V14.6474H16.026V7.90926H20.6287ZM4.59651 7.90926H7.35027V14.6474H3.02245L4.59651 7.90926ZM9.38696 7.90926H13.99V14.6474H9.38698L9.38696 7.90926ZM16.0259 19.0594V16.6837H20.6286V18.8622C20.6155 18.9271 20.6088 18.9931 20.6086 19.0594C20.6092 19.3613 20.5503 19.6605 20.4352 19.9397C20.3201 20.2189 20.151 20.4726 19.9377 20.6864C19.7244 20.9002 19.471 21.0697 19.1921 21.1855C18.9132 21.3012 18.6141 21.3607 18.3121 21.3607C18.0102 21.3607 17.7111 21.3012 17.4322 21.1855C17.1533 21.0697 16.8999 20.9002 16.6866 20.6864C16.4733 20.4726 16.3042 20.2189 16.1891 19.9397C16.074 19.6605 16.0151 19.3613 16.0157 19.0594H16.0259ZM22.6649 14.6474V7.90926H27.268V14.6474H22.6649ZM29.3039 7.90926H32.013L33.5999 14.6474H29.304L29.3039 7.90926ZM2.75695 16.6837H7.35056V19.0594C7.35056 19.6685 7.10856 20.2528 6.6778 20.6835C6.24704 21.1143 5.6628 21.3563 5.05361 21.3563C4.44442 21.3563 3.86018 21.1143 3.42942 20.6835C2.99866 20.2528 2.75666 19.6685 2.75666 19.0594V16.6837H2.75695ZM15.7537 33.9637V24.4915H7.90718V33.9637H5.42732V23.3709C5.99366 23.3225 6.54491 23.1631 7.04957 22.9015C7.55423 22.64 8.00239 22.2816 8.36842 21.8467C8.77459 22.3307 9.28183 22.7199 9.85449 22.9869C10.4271 23.2539 11.0513 23.3923 11.6832 23.3923C12.315 23.3923 12.9392 23.2539 13.5119 22.9869C14.0845 22.7199 14.5918 22.3307 14.9979 21.8467C15.4041 22.3307 15.9113 22.7199 16.4839 22.9869C17.0566 23.2539 17.6807 23.3923 18.3125 23.3923C18.9444 23.3923 19.5685 23.2539 20.1412 22.9869C20.7138 22.7199 21.221 22.3307 21.6272 21.8467C22.0333 22.3307 22.5406 22.7199 23.1132 22.9869C23.6859 23.2539 24.3101 23.3923 24.9419 23.3923C25.5738 23.3923 26.198 23.2539 26.7706 22.9869C27.3433 22.7199 27.8505 22.3307 28.2567 21.8467C28.6227 22.2816 29.0708 22.6401 29.5755 22.9016C30.0802 23.1631 30.6314 23.3226 31.1978 23.3709V33.9637L15.7537 33.9637ZM31.5711 21.3556C30.9622 21.3549 30.3785 21.1127 29.9479 20.6822C29.5173 20.2517 29.275 19.6679 29.2742 19.059H29.3041V16.6834H33.8677V19.059C33.8671 19.6679 33.6249 20.2517 33.1944 20.6823C32.7638 21.1128 32.18 21.355 31.5711 21.3556Z" fill="#213368"/>
<path d="M28.5933 24.3055H18.9209C18.6509 24.3056 18.392 24.4129 18.2011 24.6038C18.0103 24.7948 17.903 25.0537 17.903 25.3237V30.5631C17.903 30.8331 18.0102 31.0921 18.2011 31.283C18.392 31.4739 18.6509 31.5812 18.9209 31.5813H28.5933C28.7271 31.5813 28.8595 31.555 28.983 31.5039C29.1066 31.4527 29.2188 31.3777 29.3134 31.2832C29.4079 31.1886 29.4829 31.0764 29.5341 30.9528C29.5852 30.8293 29.6115 30.6968 29.6115 30.5631V25.3237C29.6116 25.19 29.5853 25.0575 29.5341 24.934C29.483 24.8104 29.408 24.6982 29.3134 24.6036C29.2189 24.509 29.1066 24.4341 28.983 24.3829C28.8595 24.3318 28.7271 24.3055 28.5933 24.3055ZM27.5752 29.545H19.9391V26.3418H27.5752V29.545Z" fill="#213368"/>
</svg>
