<svg width="36" height="36" viewBox="0 0 36 36" fill="none" xmlns="http://www.w3.org/2000/svg">
<path d="M34.875 36C34.7269 36.0009 34.5802 35.9725 34.4431 35.9165C34.306 35.8605 34.1814 35.778 34.0763 35.6737L27.6637 29.25H5.625C4.13316 29.25 2.70242 28.6574 1.64752 27.6025C0.592632 26.5476 0 25.1168 0 23.625L0 5.625C0 4.13316 0.592632 2.70242 1.64752 1.64752C2.70242 0.592632 4.13316 0 5.625 0L30.375 0C31.8668 0 33.2976 0.592632 34.3525 1.64752C35.4074 2.70242 36 4.13316 36 5.625V34.875C36 35.1734 35.8815 35.4595 35.6705 35.6705C35.4595 35.8815 35.1734 36 34.875 36ZM5.625 2.25C4.72989 2.25 3.87145 2.60558 3.23851 3.23851C2.60558 3.87145 2.25 4.72989 2.25 5.625V23.625C2.25 24.5201 2.60558 25.3786 3.23851 26.0115C3.87145 26.6444 4.72989 27 5.625 27H28.125C28.2731 26.9991 28.4198 27.0275 28.5569 27.0835C28.694 27.1395 28.8186 27.222 28.9237 27.3263L33.75 32.1637V5.625C33.75 4.72989 33.3944 3.87145 32.7615 3.23851C32.1286 2.60558 31.2701 2.25 30.375 2.25H5.625Z" fill="#213368"/>
<path d="M18 16.875C17.555 16.875 17.12 16.743 16.75 16.4958C16.38 16.2486 16.0916 15.8972 15.9213 15.486C15.751 15.0749 15.7064 14.6225 15.7932 14.186C15.8801 13.7496 16.0943 13.3487 16.409 13.034C16.7237 12.7193 17.1246 12.5051 17.561 12.4182C17.9975 12.3314 18.4499 12.376 18.861 12.5463C19.2722 12.7166 19.6236 13.005 19.8708 13.375C20.118 13.745 20.25 14.18 20.25 14.625C20.25 15.2217 20.0129 15.794 19.591 16.216C19.169 16.6379 18.5967 16.875 18 16.875Z" fill="#213368"/>
<path d="M25.875 16.875C25.43 16.875 24.995 16.743 24.625 16.4958C24.255 16.2486 23.9666 15.8972 23.7963 15.486C23.626 15.0749 23.5814 14.6225 23.6682 14.186C23.7551 13.7496 23.9693 13.3487 24.284 13.034C24.5987 12.7193 24.9996 12.5051 25.436 12.4182C25.8725 12.3314 26.3249 12.376 26.736 12.5463C27.1472 12.7166 27.4986 13.005 27.7458 13.375C27.993 13.745 28.125 14.18 28.125 14.625C28.125 15.2217 27.8879 15.794 27.466 16.216C27.044 16.6379 26.4717 16.875 25.875 16.875Z" fill="#213368"/>
<path d="M10.125 16.875C9.67999 16.875 9.24498 16.743 8.87497 16.4958C8.50496 16.2486 8.21657 15.8972 8.04627 15.486C7.87597 15.0749 7.83142 14.6225 7.91823 14.186C8.00505 13.7496 8.21934 13.3487 8.53401 13.034C8.84868 12.7193 9.24959 12.5051 9.68605 12.4182C10.1225 12.3314 10.5749 12.376 10.986 12.5463C11.3972 12.7166 11.7486 13.005 11.9958 13.375C12.243 13.745 12.375 14.18 12.375 14.625C12.375 15.2217 12.1379 15.794 11.716 16.216C11.294 16.6379 10.7217 16.875 10.125 16.875Z" fill="#213368"/>
</svg>
