<svg width="37" height="37" viewBox="0 0 37 37" fill="none" xmlns="http://www.w3.org/2000/svg">
<path d="M35.3182 20.1818C35.7642 20.1818 36.192 20.0046 36.5074 19.6892C36.8228 19.3738 37 18.946 37 18.5C37 18.054 36.8228 17.6262 36.5074 17.3108C36.192 16.9954 35.7642 16.8182 35.3182 16.8182H30.2727V13.4545H35.3182C35.7642 13.4545 36.192 13.2774 36.5074 12.962C36.8228 12.6465 37 12.2188 37 11.7727C37 11.3267 36.8228 10.8989 36.5074 10.5835C36.192 10.2681 35.7642 10.0909 35.3182 10.0909H29.97C29.7189 9.38556 29.3139 8.74494 28.7845 8.21551C28.2551 7.68609 27.6144 7.28113 26.9091 7.03V1.68182C26.9091 1.23577 26.7319 0.807995 26.4165 0.492593C26.1011 0.177191 25.6733 0 25.2273 0C24.7812 0 24.3534 0.177191 24.038 0.492593C23.7226 0.807995 23.5455 1.23577 23.5455 1.68182V6.72727H20.1818V1.68182C20.1818 1.23577 20.0046 0.807995 19.6892 0.492593C19.3738 0.177191 18.946 0 18.5 0C18.054 0 17.6262 0.177191 17.3108 0.492593C16.9954 0.807995 16.8182 1.23577 16.8182 1.68182V6.72727H13.4545V1.68182C13.4545 1.23577 13.2774 0.807995 12.962 0.492593C12.6465 0.177191 12.2188 0 11.7727 0C11.3267 0 10.8989 0.177191 10.5835 0.492593C10.2681 0.807995 10.0909 1.23577 10.0909 1.68182V7.03C9.38556 7.28113 8.74494 7.68609 8.21551 8.21551C7.68609 8.74494 7.28113 9.38556 7.03 10.0909H1.68182C1.23577 10.0909 0.807995 10.2681 0.492593 10.5835C0.177191 10.8989 0 11.3267 0 11.7727C0 12.2188 0.177191 12.6465 0.492593 12.962C0.807995 13.2774 1.23577 13.4545 1.68182 13.4545H6.72727V16.8182H1.68182C1.23577 16.8182 0.807995 16.9954 0.492593 17.3108C0.177191 17.6262 0 18.054 0 18.5C0 18.946 0.177191 19.3738 0.492593 19.6892C0.807995 20.0046 1.23577 20.1818 1.68182 20.1818H6.72727V23.5455H1.68182C1.23577 23.5455 0.807995 23.7226 0.492593 24.038C0.177191 24.3534 0 24.7812 0 25.2273C0 25.6733 0.177191 26.1011 0.492593 26.4165C0.807995 26.7319 1.23577 26.9091 1.68182 26.9091H7.03C7.28113 27.6144 7.68609 28.2551 8.21551 28.7845C8.74494 29.3139 9.38556 29.7189 10.0909 29.97V35.3182C10.0909 35.7642 10.2681 36.192 10.5835 36.5074C10.8989 36.8228 11.3267 37 11.7727 37C12.2188 37 12.6465 36.8228 12.962 36.5074C13.2774 36.192 13.4545 35.7642 13.4545 35.3182V30.2727H16.8182V35.3182C16.8182 35.7642 16.9954 36.192 17.3108 36.5074C17.6262 36.8228 18.054 37 18.5 37C18.946 37 19.3738 36.8228 19.6892 36.5074C20.0046 36.192 20.1818 35.7642 20.1818 35.3182V30.2727H23.5455V35.3182C23.5455 35.7642 23.7226 36.192 24.038 36.5074C24.3534 36.8228 24.7812 37 25.2273 37C25.6733 37 26.1011 36.8228 26.4165 36.5074C26.7319 36.192 26.9091 35.7642 26.9091 35.3182V29.97C27.6144 29.7189 28.2551 29.3139 28.7845 28.7845C29.3139 28.2551 29.7189 27.6144 29.97 26.9091H35.3182C35.7642 26.9091 36.192 26.7319 36.5074 26.4165C36.8228 26.1011 37 25.6733 37 25.2273C37 24.7812 36.8228 24.3534 36.5074 24.038C36.192 23.7226 35.7642 23.5455 35.3182 23.5455H30.2727V20.1818H35.3182ZM25.2273 26.9091H11.7727C11.3267 26.9091 10.8989 26.7319 10.5835 26.4165C10.2681 26.1011 10.0909 25.6733 10.0909 25.2273V11.7727C10.0909 11.3267 10.2681 10.8989 10.5835 10.5835C10.8989 10.2681 11.3267 10.0909 11.7727 10.0909H25.2273C25.6733 10.0909 26.1011 10.2681 26.4165 10.5835C26.7319 10.8989 26.9091 11.3267 26.9091 11.7727V25.2273C26.9091 25.6733 26.7319 26.1011 26.4165 26.4165C26.1011 26.7319 25.6733 26.9091 25.2273 26.9091Z" fill="#213368"/>
<path d="M23.5455 11.7727C23.0994 11.7727 22.6716 11.9499 22.3562 12.2653C22.0408 12.5807 21.8636 13.0085 21.8636 13.4545C21.8636 13.9006 22.0408 14.3283 22.3562 14.6437C22.6716 14.9592 23.0994 15.1363 23.5455 15.1363C23.9915 15.1363 24.4193 14.9592 24.7347 14.6437C25.0501 14.3283 25.2273 13.9006 25.2273 13.4545C25.2273 13.0085 25.0501 12.5807 24.7347 12.2653C24.4193 11.9499 23.9915 11.7727 23.5455 11.7727Z" fill="#213368"/>
</svg>
