<svg width="51" height="51" viewBox="0 0 51 51" fill="none" xmlns="http://www.w3.org/2000/svg">
<path d="M25.5 4.25C21.4764 4.25834 17.5861 5.69358 14.5211 8.30045C11.4562 10.9073 9.41523 14.5168 8.76127 18.487C8.10732 22.4571 8.88275 26.5305 10.9497 29.9827C13.0166 33.4349 16.241 36.0421 20.0494 37.3405L25.5 46.733L30.9506 37.3405C34.759 36.0421 37.9834 33.4349 40.0503 29.9827C42.1173 26.5305 42.8927 22.4571 42.2387 18.487C41.5848 14.5168 39.5438 10.9073 36.4789 8.30045C33.4139 5.69358 29.5236 4.25834 25.5 4.25ZM28.9553 33.5112L28.1244 33.745H25.5H22.8756L22.0448 33.5112C19.0806 32.6767 16.5186 30.7976 14.8321 28.2211C13.1457 25.6446 12.4486 22.5448 12.8698 19.4943C13.2911 16.4439 14.8021 13.649 17.1237 11.6259C19.4453 9.60284 22.4206 8.48836 25.5 8.48836C28.5794 8.48836 31.5547 9.60284 33.8763 11.6259C36.198 13.649 37.7089 16.4439 38.1302 19.4943C38.5514 22.5448 37.8544 25.6446 36.1679 28.2211C34.4814 30.7976 31.9194 32.6767 28.9553 33.5112Z" fill="#213368"/>
<path d="M25.5001 6.375C22.5581 6.375 19.6821 7.2474 17.236 8.88189C14.7898 10.5164 12.8832 12.8395 11.7574 15.5576C10.6315 18.2756 10.3369 21.2665 10.9109 24.152C11.4848 27.0374 12.9015 29.6879 14.9819 31.7682C17.0622 33.8485 19.7126 35.2652 22.5981 35.8392C25.4836 36.4131 28.4744 36.1186 31.1925 34.9927C33.9105 33.8669 36.2337 31.9603 37.8682 29.5141C39.5027 27.0679 40.3751 24.192 40.3751 21.25C40.3751 17.3049 38.8079 13.5214 36.0183 10.7318C33.2287 7.94218 29.4452 6.375 25.5001 6.375ZM25.5001 26.2083C24.5194 26.2083 23.5608 25.9175 22.7454 25.3727C21.93 24.8279 21.2944 24.0535 20.9192 23.1475C20.5439 22.2415 20.4457 21.2445 20.637 20.2827C20.8283 19.3209 21.3006 18.4374 21.994 17.7439C22.6874 17.0505 23.5709 16.5783 24.5327 16.3869C25.4946 16.1956 26.4915 16.2938 27.3975 16.6691C28.3036 17.0444 29.0779 17.6799 29.6228 18.4953C30.1676 19.3107 30.4584 20.2693 30.4584 21.25C30.4584 22.565 29.936 23.8262 29.0061 24.7561C28.0763 25.6859 26.8151 26.2083 25.5001 26.2083Z" fill="#213368"/>
</svg>
