<svg width="55" height="60" viewBox="0 0 55 60" fill="currentColor" xmlns="http://www.w3.org/2000/svg">
<path d="M10.2288 34.2746V53.2345H11.3817V35.6367H16.0537V53.2345H17.2066V34.2746H10.2288Z" fill="currentColor"/>
<path d="M42.3219 34.2746V53.2345H43.4748V35.6367H48.1497V53.2345H49.3025V34.2746H42.3219Z" fill="currentColor"/>
<path d="M20.9246 20.0819V53.2345H22.0775V21.444H26.7524V53.2345H27.9053V20.0819H20.9246Z" fill="currentColor"/>
<path d="M31.6232 35.749V53.2345H32.7761V37.1111H37.451V53.2345H38.6039V35.749H31.6232Z" fill="currentColor"/>
<path d="M52.3403 59.3331H6.53967V53.2345H52.3403V59.3331Z" fill="currentColor"/>
<path d="M22.0659 9.41702L21.2589 10.4658L18.3018 14.2966L17.2527 15.6587L6.53966 29.5483L5.38679 31.0431L0 38.0271L0.864653 38.9465L5.39832 33.0692L6.55119 31.5743L18.8148 15.6587L19.8668 14.2966L22.1121 11.3852L22.9191 10.3364C22.5471 10.1673 22.2426 9.8391 22.0659 9.41702Z" fill="currentColor"/>
<path d="M48.7261 0.26062V1.62268H52.3346L42.0221 14.2966L40.9125 15.6587L35.8226 21.914L35.1597 22.7278L34.5285 21.9071L29.7268 15.6587L28.6805 14.2966L25.7263 10.4693L24.9164 9.42047C24.7369 9.84424 24.4278 10.1716 24.0518 10.3365L24.8617 11.3886L27.1011 14.2966L28.1502 15.6587L33.439 22.5303L34.2172 23.5518C34.4881 23.3172 34.8152 23.1907 35.151 23.1907C35.4869 23.1907 35.814 23.3172 36.0848 23.5518L36.889 22.5643L42.5006 15.6689L43.6073 14.3069L53.1012 2.64422V6.67592H54.2541V0.26062H48.7261Z" fill="currentColor"/>
<path d="M36.9005 22.5541C36.4131 22.0806 35.8022 21.8207 35.1712 21.8186C34.5487 21.8192 33.9449 22.0702 33.4592 22.5303C33.0161 22.9495 32.6938 23.5206 32.5366 24.1651C32.3795 24.8096 32.3953 25.4958 32.5817 26.1292C32.7682 26.7627 33.1162 27.3124 33.5779 27.7026C34.0396 28.0928 34.5923 28.3044 35.16 28.3084C35.7277 28.3123 36.2824 28.1083 36.748 27.7244C37.2135 27.3406 37.5669 26.7958 37.7596 26.1649C37.9524 25.5341 37.9749 24.8481 37.8241 24.2015C37.6734 23.5549 37.3567 22.9794 36.9178 22.5541H36.9005ZM35.1712 26.9501C34.8352 26.949 34.508 26.8224 34.2365 26.5885C33.965 26.3545 33.7631 26.0252 33.6595 25.6475C33.5559 25.2698 33.556 24.8631 33.6598 24.4855C33.7636 24.1079 33.9657 23.7787 34.2374 23.545C34.5082 23.3104 34.8353 23.1839 35.1712 23.1839C35.507 23.1839 35.8342 23.3104 36.105 23.545C36.3766 23.7787 36.5788 24.1079 36.6826 24.4855C36.7864 24.8631 36.7865 25.2698 36.6829 25.6475C36.5793 26.0252 36.3774 26.3545 36.1059 26.5885C35.8344 26.8224 35.5072 26.949 35.1712 26.9501Z" fill="currentColor"/>
<path d="M23.4926 5.33426C22.988 5.33453 22.4932 5.49901 22.0626 5.80966C21.6319 6.12031 21.282 6.56511 21.0512 7.09527C20.8204 7.62542 20.7177 8.22043 20.7544 8.81501C20.791 9.40958 20.9656 9.98075 21.2589 10.4658C21.6556 11.1242 22.2461 11.5838 22.9147 11.7545C23.5833 11.9252 24.2818 11.7947 24.8732 11.3886C25.3947 11.0291 25.8015 10.4769 26.0309 9.81702C26.2603 9.15719 26.2995 8.4265 26.1424 7.73773C25.9854 7.04896 25.6408 6.44042 25.1619 6.00604C24.683 5.57165 24.0964 5.33558 23.4926 5.33426ZM25.0259 9.16845C24.8166 9.66737 24.4799 10.0759 24.0633 10.3364C23.8802 10.4239 23.6843 10.4679 23.4868 10.4658C23.2894 10.4671 23.0937 10.4232 22.9104 10.3364C22.6396 10.213 22.4024 10.0045 22.2245 9.73354C22.0466 9.46254 21.9347 9.13928 21.9009 8.79866C21.8672 8.45803 21.9128 8.11297 22.0328 7.80072C22.1529 7.48847 22.3428 7.22089 22.5822 7.02685C22.8215 6.83281 23.1012 6.71969 23.391 6.69968C23.6808 6.67968 23.9697 6.75356 24.2265 6.91334C24.4834 7.07313 24.6984 7.31276 24.8485 7.60637C24.9985 7.89997 25.0778 8.23641 25.0778 8.57936C25.0864 8.88242 25.1354 8.91647 25.0259 9.16845Z" fill="currentColor"/>
</svg>
