<svg width="48" height="48" viewBox="0 0 48 48" fill="none" xmlns="http://www.w3.org/2000/svg">
<path d="M9.66606 14.9C12.5379 14.9 14.8661 12.5719 14.8661 9.7C14.8661 6.82812 12.5379 4.5 9.66606 4.5C6.79418 4.5 4.46606 6.82812 4.46606 9.7C4.46606 12.5719 6.79418 14.9 9.66606 14.9Z" fill="#213368"/>
<path d="M15.0941 31.1136L14.7128 28.8671C14.2848 26.3449 14.8978 23.9202 16.2123 21.9921C14.7361 20.0061 12.3805 18.6883 9.66605 18.6883C4.61142 18.6883 0.771519 23.2348 1.61719 28.2181L1.94761 30.1651C2.13071 31.244 3.06556 32.0336 4.15998 32.0336H4.36185L5.32947 41.2145C5.45023 42.5097 6.53724 43.5 7.83802 43.5H11.4941C12.7949 43.5 13.8819 42.5097 14.0027 41.2145L14.9702 32.0336H15.1722C15.2571 32.0336 15.332 31.9993 15.4146 31.9901C15.2594 31.7257 15.148 31.4309 15.0941 31.1136Z" fill="#213368"/>
<path d="M38.3339 14.9C41.2058 14.9 43.5339 12.5719 43.5339 9.7C43.5339 6.82812 41.2058 4.5 38.3339 4.5C35.4621 4.5 33.1339 6.82812 33.1339 9.7C33.1339 12.5719 35.4621 14.9 38.3339 14.9Z" fill="#213368"/>
<path d="M38.334 18.6883C35.6195 18.6883 33.2639 20.0061 31.7877 21.9921C33.1022 23.9202 33.7152 26.3449 33.2872 28.8671L32.9059 31.1136C32.8521 31.4309 32.7406 31.7257 32.5854 31.9901C32.668 31.9993 32.7429 32.0336 32.8278 32.0336H33.0298L33.9973 41.2145C34.1181 42.5097 35.2051 43.5 36.5059 43.5H40.162C41.4628 43.5 42.5498 42.5097 42.6705 41.2145L43.6382 32.0336H43.84C44.9344 32.0336 45.8693 31.244 46.0524 30.1651L46.3828 28.2181C47.2285 23.2348 43.3886 18.6883 38.334 18.6883Z" fill="#213368"/>
<path d="M24 15C19.8647 15 16.5 11.6353 16.5 7.5C16.5 3.36475 19.8647 0 24 0C28.1353 0 31.5 3.36475 31.5 7.5C31.5 11.6353 28.1353 15 24 15ZM24 3C21.5186 3 19.5 5.01855 19.5 7.5C19.5 9.98145 21.5186 12 24 12C26.4814 12 28.5 9.98145 28.5 7.5C28.5 5.01855 26.4814 3 24 3Z" fill="#213368"/>
<path d="M26.1094 48H21.8906C19.6011 48 17.7144 46.2817 17.502 44.0024L16.5132 34.6113C15.0322 34.1873 13.8838 32.9502 13.6143 31.3638L13.2334 29.1174C12.6943 25.9409 13.5776 22.7065 15.6577 20.2449C17.7363 17.7832 20.7774 16.3711 24 16.3711C27.2227 16.3711 30.2637 17.7832 32.3423 20.2449C34.4224 22.7065 35.3057 25.9409 34.7666 29.1182L34.3858 31.3638C34.1162 32.9502 32.9678 34.1873 31.4868 34.6113L30.4951 44.0208C30.2857 46.2817 28.3989 48 26.1094 48ZM24 19.3711C21.6621 19.3711 19.4575 20.395 17.9502 22.1807C16.4414 23.9663 15.8013 26.3115 16.1924 28.6157L16.5733 30.8628C16.6611 31.3879 17.1138 31.7695 17.647 31.7695H17.8799C18.6475 31.7695 19.2905 32.3489 19.3711 33.1121L20.4873 43.7058C20.5576 44.4514 21.1597 45 21.8906 45H26.1094C26.8403 45 27.4424 44.4514 27.5098 43.7241L28.6289 33.1121C28.7095 32.3489 29.3526 31.7695 30.1201 31.7695H30.353C30.8862 31.7695 31.3389 31.3879 31.4268 30.8628L31.8076 28.6165C32.1987 26.3115 31.5586 23.9663 30.0498 22.1807C28.5425 20.395 26.3379 19.3711 24 19.3711Z" fill="#213368"/>
</svg>
