<svg width="40" height="60" viewBox="0 0 40 60" fill="none" xmlns="http://www.w3.org/2000/svg">
<path d="M31.5295 34.7857L33.6548 25.7399L24.609 27.8653L20.9982 22.0373L35.8348 18.3284V0H3.59476V18.3284L18.4314 22.0373L14.8205 27.8653L5.77468 25.7399L7.90004 34.7857L0 39.68L7.90004 44.5743L5.77468 53.6201L14.8205 51.4947L19.7148 59.3948L24.609 51.4947L33.6548 53.6201L31.5295 44.5743L39.4295 39.68L31.5295 34.7857ZM19.7148 19.8016L13.5148 18.2516V2.48H25.9148V18.2516L19.7148 19.8016ZM33.3548 16.3916L28.3948 17.6316V2.48H33.3548V16.3916ZM6.07476 2.48H11.0348V17.6316L6.07476 16.3916V2.48ZM30.3254 50.2907L23.441 48.6725L19.7148 54.6852L15.9898 48.6725L9.10532 50.2907L10.7235 43.4062L4.70952 39.68L10.7223 35.955L9.10408 29.0706L15.9886 30.6888L19.7148 24.6748L23.4397 30.6875L30.3242 29.0693L28.706 35.9538L34.72 39.68L28.7072 43.405L30.3254 50.2907Z" fill="#213368"/>
<path d="M19.7147 32.24C15.6115 32.24 12.2747 35.5768 12.2747 39.68C12.2747 43.7832 15.6115 47.12 19.7147 47.12C23.8178 47.12 27.1547 43.7832 27.1547 39.68C27.1547 35.5768 23.8178 32.24 19.7147 32.24ZM19.7147 44.64C16.9792 44.64 14.7547 42.4154 14.7547 39.68C14.7547 36.9446 16.9792 34.72 19.7147 34.72C22.4501 34.72 24.6747 36.9446 24.6747 39.68C24.6747 42.4154 22.4501 44.64 19.7147 44.64Z" fill="#213368"/>
</svg>
