<svg width="52" height="59" viewBox="0 0 52 59" fill="none" xmlns="http://www.w3.org/2000/svg">
<path d="M20.8467 20.4533C21.24 21.4367 19.2733 23.6 19.8633 24.19C20.65 24.9767 22.8133 22.8133 23.6 23.2067C24.5833 23.6 24.5833 26.55 25.5667 26.55C26.55 26.55 26.7467 23.6 27.5333 23.2067C28.5167 22.8133 30.68 24.78 31.27 24.19C32.0567 23.4033 29.8933 21.24 30.2867 20.4533C30.68 19.47 33.63 19.47 33.63 18.4867C33.63 17.5033 30.68 17.3067 30.2867 16.52C29.8933 15.5367 31.86 13.3733 31.27 12.7833C30.4833 11.9967 28.32 14.16 27.5333 13.7667C26.55 13.3733 26.55 10.4233 25.5667 10.4233C24.5833 10.4233 24.3867 13.3733 23.6 13.7667C22.6167 14.16 20.4533 12.1933 19.8633 12.7833C19.0767 13.57 21.24 15.7333 20.8467 16.52C20.4533 17.5033 17.5033 17.5033 17.5033 18.4867C17.5033 19.47 20.4533 19.47 20.8467 20.4533ZM43.2667 7.86667V1.57333C43.2667 0.786667 42.6767 0 41.6933 0H9.24333C8.45667 0.196667 7.86667 0.786667 7.86667 1.57333V7.86667C5.11333 7.86667 0 8.65333 0 14.3567C0 18.6833 3.14667 25.1733 7.86667 25.96C8.65333 34.6133 14.9467 40.5133 20.65 40.5133H21.4367V47.79H17.3067C15.34 47.79 13.57 49.3633 13.57 51.5267V57.4267C13.57 58.2133 14.16 59 15.1433 59H36.1867C36.9733 59 37.76 58.41 37.76 57.4267V51.5267C37.76 49.56 36.1867 47.79 34.0233 47.79H29.8933V40.5133C37.76 40.12 42.6767 33.2367 43.4633 26.1567C48.1833 25.5667 51.33 18.88 51.33 14.5533C51.1333 8.65333 46.02 7.86667 43.2667 7.86667ZM7.86667 23.01C5.31 22.0267 2.95 17.7 2.95 14.3567C2.95 12.39 3.93333 11.0133 7.86667 10.8167V23.01ZM33.8267 50.74C34.22 50.74 34.6133 51.1333 34.6133 51.5267V56.05H16.52V51.5267C16.52 51.1333 16.9133 50.74 17.3067 50.74H33.8267ZM24.3867 47.79V40.5133H26.7467V47.79H24.3867ZM40.3167 24.19C40.3167 29.6967 36.7767 37.5633 29.1067 37.5633H20.65C15.93 37.5633 10.62 32.0567 10.62 24.19V3.14667H40.3167V24.19ZM43.2667 23.01V10.8167C47.2 11.0133 47.9867 12.39 47.9867 14.5533C48.1833 17.8967 45.8233 22.2233 43.2667 23.01Z" fill="#213368"/>
</svg>
